HIERARCHY
ROOT Hips
{
  OFFSET 52.6575 91.7217 4.60015
  CHANNELS 6 Xposition Yposition Zposition Zrotation Xrotation Yrotation
  JOINT spine
  {
    OFFSET 0 6.84637 0.3937
    CHANNELS 3 Zrotation Xrotation Yrotation
    JOINT spine1
    {
      OFFSET 0 9.49621 0
      CHANNELS 3 Zrotation Xrotation Yrotation
      JOINT spine2
      {
        OFFSET 0 9.09909 0
        CHANNELS 3 Zrotation Xrotation Yrotation
        JOINT Neck
        {
          OFFSET 0 23.3612 1.11378
          CHANNELS 3 Zrotation Xrotation Yrotation
          JOINT Head
          {
            OFFSET 0 7.05802 0
            CHANNELS 3 Zrotation Xrotation Yrotation
            End Site
            {
              OFFSET 0 17.0844 -5.63419
            }
          }
        }
        JOINT RightShoulder
        {
          OFFSET -3.83136 9.82631 -0.533491
          CHANNELS 3 Zrotation Xrotation Yrotation
          JOINT RightArm
          {
            OFFSET 0 12.8881 0
            CHANNELS 3 Zrotation Xrotation Yrotation
            JOINT RightArmRoll
            {
              OFFSET 0 6.50617 0
              CHANNELS 3 Zrotation Xrotation Yrotation
              JOINT RightForeArm
              {
                OFFSET 0 18.9501 0
                CHANNELS 3 Zrotation Xrotation Yrotation
                JOINT RightForeArmRoll
                {
                  OFFSET 0 7.30092 0
                  CHANNELS 3 Zrotation Xrotation Yrotation
                  JOINT RightHand
                  {
                    OFFSET 0 14.6514 0
                    CHANNELS 3 Zrotation Xrotation Yrotation
                    End Site
                    {
                      OFFSET 0 0 0
                    }
                  }
                }
              }
            }
          }
        }
        JOINT LeftShoulder
        {
          OFFSET 3.83136 9.82631 -0.533491
          CHANNELS 3 Zrotation Xrotation Yrotation
          JOINT LeftArm
          {
            OFFSET 0 12.8881 0
            CHANNELS 3 Zrotation Xrotation Yrotation
            JOINT LeftArmRoll
            {
              OFFSET 0 6.50617 0
              CHANNELS 3 Zrotation Xrotation Yrotation
              JOINT LeftForeArm
              {
                OFFSET 0 18.9501 0
                CHANNELS 3 Zrotation Xrotation Yrotation
                JOINT LeftForeArmRoll
                {
                  OFFSET 0 7.30092 0
                  CHANNELS 3 Zrotation Xrotation Yrotation
                  JOINT LeftHand
                  {
                    OFFSET 0 14.6514 0
                    CHANNELS 3 Zrotation Xrotation Yrotation
                    End Site
                    {
                      OFFSET 0 0 0
                    }
                  }
                }
              }
            }
          }
        }
      }
    }
  }
  JOINT RightUpLeg
  {
    OFFSET -6.06837 -1.11278 -0.933477
    CHANNELS 3 Zrotation Xrotation Yrotation
    JOINT RightUpLegRoll
    {
      OFFSET 0 17.1796 0
      CHANNELS 3 Zrotation Xrotation Yrotation
      JOINT RightLeg
      {
        OFFSET 0 -21.2743 0
        CHANNELS 3 Zrotation Xrotation Yrotation
        JOINT RightLegRoll
        {
          OFFSET 0 21.3439 0
          CHANNELS 3 Zrotation Xrotation Yrotation
          JOINT RightFoot
          {
            OFFSET 0 17.7652 0
            CHANNELS 3 Zrotation Xrotation Yrotation
            JOINT RightToeBase
            {
              OFFSET 0 14.8508 0
              CHANNELS 3 Zrotation Xrotation Yrotation
              End Site
              {
                OFFSET 0.00629469 7.19214 -0.829004
              }
            }
          }
        }
      }
    }
  }
  JOINT LeftUpLeg
  {
    OFFSET 6.06837 -1.11278 -0.933477
    CHANNELS 3 Zrotation Xrotation Yrotation
    JOINT LeftUpLegRoll
    {
      OFFSET 0 17.1797 0
      CHANNELS 3 Zrotation Xrotation Yrotation
      JOINT LeftLeg
      {
        OFFSET 0 21.2742 0
        CHANNELS 3 Zrotation Xrotation Yrotation
        JOINT LeftLegRoll
        {
          OFFSET 0 21.5412 0
          CHANNELS 3 Zrotation Xrotation Yrotation
          JOINT LeftFoot
          {
            OFFSET 0 17.5679 0
            CHANNELS 3 Zrotation Xrotation Yrotation
            JOINT LeftToeBase
            {
              OFFSET 0 14.8508 0
              CHANNELS 3 Zrotation Xrotation Yrotation
              End Site
              {
                OFFSET -0.0282102 7.19214 -0.829005
              }
            }
          }
        }
      }
    }
  }
}
MOTION
Frames: 9
Frame Time: 0.00208333
50.9331 91.4734 5.65763 -4.5434 3.25704 1.39376 -0.86207 -3.65935 0.364504 -1.68665 -3.31784 0.784759 -1.69499 -1.67323 0.812653 31.6382 17.5823 -12.061 -16.5864 3.95415 -2.05398 26.4167 -20.219 -17.856 -41.3119 46.1025 130.865 -4.28497e-006 3.01829e-007 -1.96228e-006 -4.40218 34.9973 2.30798 -9.62541e-006 2.55556e-006 -3 8.02917 -4.95145 0.697692 -60.477 1.64889 -0.812417 -107.159 9.81233 -26.9848 -5.02675e-007 -7.13057e-008 2.95005e-006 -5.7943 1.33988 0.24996 1.62215e-005 -5.72526e-006 3.00846 -8.02924 -4.95143 -0.69767 -177.583 5.83947 -3.39285 180 7.01586e-015 179.108 178.305 4.26901 179.957 3.03062e-006 -1.82859e-007 0.0445793 -18.8034 68.11 19.63 8.1365 25.2327 -3.48774 -168.52 5.22434 -3.51346 4.54188e-006 -4.6773e-006 -0.963934 -1.54591 -8.04443 0.129685 2.21324e-006 -6.73998e-007 -0.158806 19.7339 69.3025 -20.6803 -8.13649 25.2327 3.48774 
50.9342 91.4736 5.6668 -4.54625 3.24498 1.39268 -0.860244 -3.65641 0.365868 -1.68471 -3.31102 0.787089 -1.69308 -1.66641 0.814952 31.5767 17.5651 -12.0471 -16.5309 3.89655 -2.07214 26.4223 -20.2095 -17.8436 -41.4575 46.1453 130.913 -4.28497e-006 3.01829e-007 -1.96228e-006 -4.36664 34.9701 2.28378 -9.62541e-006 2.55556e-006 -3 8.02917 -4.95145 0.697692 -60.4863 1.63034 -0.800064 -107.18 9.82179 -26.9692 -5.02675e-007 -7.13057e-008 2.95005e-006 -5.79973 1.35204 0.251166 1.62215e-005 -5.72526e-006 3.00846 -8.02924 -4.95143 -0.69767 -177.577 5.82817 -3.39257 180 7.01586e-015 179.108 178.301 4.27037 179.957 3.03062e-006 -1.82859e-007 0.0445754 -18.8037 68.1104 19.6304 8.1365 25.2327 -3.48774 -168.514 5.21466 -3.51528 4.54188e-006 -4.6773e-006 -0.964275 -1.54236 -8.0497 0.12992 2.21324e-006 -6.73998e-007 -0.15868 19.7339 69.3025 -20.6804 -8.13649 25.2327 3.48774 
50.9236 91.4741 5.66639 -4.54943 3.23363 1.39237 -0.858395 -3.65351 0.367179 -1.68278 -3.30429 0.789344 -1.69118 -1.65969 0.817174 31.5171 17.5462 -12.0332 -16.4769 3.83914 -2.09009 26.4289 -20.2008 -17.832 -41.5935 46.1869 130.954 -4.28497e-006 3.01829e-007 -1.96228e-006 -4.33256 34.9397 2.25997 -9.62541e-006 2.55556e-006 -3 8.02917 -4.95145 0.697692 -60.4946 1.61249 -0.788273 -107.201 9.83083 -26.9525 -5.02675e-007 -7.13057e-008 2.95005e-006 -5.80593 1.36485 0.252466 1.62215e-005 -5.72526e-006 3.00846 -8.02924 -4.95143 -0.69767 -177.57 5.81759 -3.39263 180 7.01586e-015 179.108 178.298 4.27173 179.958 3.03062e-006 -1.82859e-007 0.0445715 -18.804 68.1108 19.6307 8.1365 25.2327 -3.48774 -168.507 5.20618 -3.51732 4.54188e-006 -4.6773e-006 -0.964589 -1.53888 -8.05531 0.130148 2.21324e-006 -6.73998e-007 -0.158565 19.734 69.3028 -20.6806 -8.13649 25.2327 3.48774 
50.9139 91.473 5.66808 -4.55292 3.22305 1.39282 -0.856541 -3.6507 0.368417 -1.68084 -3.29775 0.7915 -1.68927 -1.65315 0.819299 31.4595 17.5248 -12.0188 -16.4254 3.7837 -2.10736 26.4364 -20.1926 -17.8209 -41.7193 46.2274 130.987 -4.28497e-006 3.01829e-007 -1.96228e-006 -4.30023 34.9062 2.23675 -9.62541e-006 2.55556e-006 -3 8.02917 -4.95145 0.697692 -60.5021 1.59544 -0.777063 -107.224 9.83929 -26.9348 -5.02675e-007 -7.13057e-008 2.95005e-006 -5.81305 1.37835 0.253874 1.62215e-005 -5.72526e-006 3.00846 -8.02924 -4.95143 -0.69767 -177.564 5.80781 -3.39306 180 7.01586e-015 179.107 178.294 4.27304 179.958 3.03062e-006 -1.82859e-007 0.0445676 -18.8043 68.1112 19.631 8.1365 25.2327 -3.48774 -168.5 5.19896 -3.51958 4.54188e-006 -4.6773e-006 -0.964873 -1.53547 -8.06127 0.130369 2.21324e-006 -6.73998e-007 -0.158464 19.7343 69.3032 -20.6809 -8.13649 25.2327 3.48774 
50.9068 91.4733 5.67077 -4.55671 3.21335 1.39396 -0.854701 -3.64798 0.369565 -1.67888 -3.29148 0.793535 -1.68734 -1.64688 0.821301 31.4038 17.5004 -12.0036 -16.3772 3.73203 -2.12349 26.4444 -20.1847 -17.81 -41.8343 46.2666 131.013 -4.28497e-006 3.01829e-007 -1.96228e-006 -4.26996 34.8694 2.21428 -9.62541e-006 2.55556e-006 -3 8.02917 -4.95145 0.697692 -60.5093 1.57929 -0.766453 -107.247 9.847 -26.9161 -5.02675e-007 -7.13057e-008 2.95005e-006 -5.82127 1.39261 0.255402 1.62215e-005 -5.72526e-006 3.00846 -8.02924 -4.95143 -0.69767 -177.557 5.79889 -3.39385 180 7.01586e-015 179.107 178.29 4.27431 179.958 3.03062e-006 -1.82859e-007 0.0445637 -18.8046 68.1115 19.6313 8.1365 25.2327 -3.48774 -168.493 5.19306 -3.52207 4.54188e-006 -4.6773e-006 -0.965121 -1.53216 -8.0676 0.130581 2.21324e-006 -6.73998e-007 -0.15838 19.7348 69.3038 -20.6815 -8.13649 25.2327 3.48774 
50.8992 91.4727 5.66766 -4.56081 3.20458 1.39579 -0.852893 -3.64539 0.370602 -1.6769 -3.28555 0.795425 -1.68538 -1.64095 0.823158 31.3502 17.4725 -11.9872 -16.3335 3.6859 -2.138 26.4531 -20.1769 -17.7991 -41.9377 46.3045 131.033 -4.28497e-006 3.01829e-007 -1.96228e-006 -4.24203 34.8293 2.19273 -9.62541e-006 2.55556e-006 -3 8.02917 -4.95145 0.697692 -60.5163 1.56413 -0.756462 -107.269 9.85382 -26.8963 -5.02675e-007 -7.13057e-008 2.95005e-006 -5.83075 1.40769 0.257062 1.62215e-005 -5.72526e-006 3.00846 -8.02924 -4.95143 -0.69767 -177.55 5.79091 -3.39504 180 7.01586e-015 179.107 178.287 4.27554 179.959 3.03062e-006 -1.82859e-007 0.0445598 -18.8048 68.1117 19.6315 8.1365 25.2327 -3.48774 -168.485 5.18857 -3.52479 4.54188e-006 -4.6773e-006 -0.965328 -1.52896 -8.0743 0.130784 2.21324e-006 -6.73998e-007 -0.158316 19.7355 69.3046 -20.6822 -8.13649 25.2327 3.48774 
50.8907 91.4714 5.67067 -4.56519 3.19685 1.39824 -0.851135 -3.64297 0.371511 -1.67488 -3.28006 0.797147 -1.68339 -1.63546 0.824847 31.2988 17.4405 -11.9693 -16.2951 3.6471 -2.15045 26.4621 -20.1689 -17.7878 -42.0291 46.3411 131.046 -4.28497e-006 3.01829e-007 -1.96228e-006 -4.21675 34.7859 2.17227 -9.62541e-006 2.55556e-006 -3 8.02917 -4.95145 0.697692 -60.5233 1.55006 -0.747108 -107.292 9.85957 -26.8755 -5.02675e-007 -7.13057e-008 2.95005e-006 -5.84164 1.42365 0.258867 1.62215e-005 -5.72526e-006 3.00846 -8.02924 -4.95143 -0.69767 -177.542 5.78393 -3.39664 180 7.01586e-015 179.107 178.284 4.27672 179.959 3.03062e-006 -1.82859e-007 0.0445559 -18.8049 68.1119 19.6316 8.1365 25.2327 -3.48774 -168.477 5.18555 -3.52774 4.54188e-006 -4.6773e-006 -0.96549 -1.52589 -8.08139 0.130978 2.21324e-006 -6.73998e-007 -0.158275 19.7365 69.3057 -20.6833 -8.13649 25.2327 3.48774 
50.8843 91.4723 5.67115 -4.56985 3.19022 1.4013 -0.849445 -3.64072 0.372272 -1.6728 -3.27509 0.798679 -1.68133 -1.63048 0.826343 31.2496 17.4039 -11.9494 -16.2631 3.61742 -2.16037 26.4714 -20.1604 -17.7761 -42.1077 46.3764 131.054 -4.28497e-006 3.01829e-007 -1.96228e-006 -4.19442 34.7391 2.15309 -9.62541e-006 2.55556e-006 -3 8.02917 -4.95145 0.697692 -60.5307 1.53719 -0.738412 -107.313 9.86409 -26.8536 -5.02675e-007 -7.13057e-008 2.95005e-006 -5.85412 1.44056 0.260829 1.62215e-005 -5.72526e-006 3.00846 -8.02924 -4.95143 -0.69767 -177.534 5.77802 -3.39866 180 7.01586e-015 179.107 178.281 4.27782 179.959 3.03062e-006 -1.82859e-007 0.044552 -18.805 68.112 19.6316 8.1365 25.2327 -3.48774 -168.468 5.18407 -3.53093 4.54188e-006 -4.6773e-006 -0.965603 -1.52295 -8.08889 0.131161 2.21324e-006 -6.73998e-007 -0.15826 19.7377 69.307 -20.6846 -8.13649 25.2327 3.48774 
50.8763 91.4741 5.67284 -4.57479 3.18479 1.40492 -0.847842 -3.63869 0.372868 -1.67066 -3.27071 0.799996 -1.67921 -1.62611 0.827625 31.2028 17.3621 -11.9273 -16.2384 3.59864 -2.16729 26.4808 -20.1512 -17.7634 -42.173 46.4104 131.056 -4.28497e-006 3.01829e-007 -1.96228e-006 -4.17533 34.689 2.13534 -9.62541e-006 2.55556e-006 -3 8.02917 -4.95145 0.697692 -60.5387 1.52561 -0.730392 -107.334 9.86723 -26.8306 -5.02675e-007 -7.13057e-008 2.95005e-006 -5.86835 1.45846 0.262962 1.62215e-005 -5.72526e-006 3.00846 -8.02924 -4.95143 -0.69767 -177.526 5.77325 -3.40113 180 7.01586e-015 179.107 178.278 4.27882 179.959 3.03062e-006 -1.82859e-007 0.0445481 -18.8049 68.1119 19.6316 8.1365 25.2327 -3.48774 -168.46 5.1842 -3.53435 4.54188e-006 -4.6773e-006 -0.965661 -1.52018 -8.09679 0.131334 2.21324e-006 -6.73998e-007 -0.158274 19.7392 69.3087 -20.6862 -8.13649 25.2327 3.48774 
